<svg height="240" node-id="1" sillyvg="true" template-height="240" template-width="240" version="1.1" viewBox="0 0 240 240" width="240" xmlns="http://www.w3.org/2000/svg" xmlns:xlink="http://www.w3.org/1999/xlink"><defs node-id="95"><linearGradient gradientUnits="userSpaceOnUse" id="b534ba62-25fa-4312-a652-955fe6b5156f" node-id="5" spreadMethod="pad" x1="150.27" x2="134.26" y1="222.14" y2="129.98"><stop offset="0.2" stop-color="#dfdfdf" stop-opacity="0"></stop><stop offset="0.83" stop-color="#cccccc"></stop></linearGradient><linearGradient gradientTransform="matrix(0.73526958 -0.67777478 0.67777478 0.73526958 -330.59 -768.95)" gradientUnits="userSpaceOnUse" id="e2c85c89-fe17-4baa-b000-43cd90f0ef93" node-id="8" spreadMethod="pad" x1="-357.05" x2="-336.11" y1="935.65" y2="935.65"><stop offset="0" stop-color="#f2f6fa" stop-opacity="0"></stop><stop offset="0.7" stop-color="#e6e6e6" stop-opacity="0.5"></stop></linearGradient><linearGradient gradientUnits="userSpaceOnUse" id="ad364dd6-ee6f-468d-adcb-c3ed06e30895" node-id="11" spreadMethod="pad" x1="180.02" x2="215.85" y1="134.77" y2="134.77"><stop offset="0" stop-color="#f2f6fa" stop-opacity="0"></stop><stop offset="0.7" stop-color="#e6e6e6" stop-opacity="0.5"></stop></linearGradient><linearGradient gradientUnits="userSpaceOnUse" id="fd7662a3-17fe-4a7b-85ae-f5fd22a70aa2" node-id="12" spreadMethod="pad" x1="120" x2="120" y1="304.22" y2="69.22"><stop offset="0" stop-color="#f4f4f4" stop-opacity="0"></stop><stop offset="0.69" stop-color="#dfdfdf" stop-opacity="0.7"></stop></linearGradient><linearGradient gradientTransform="matrix(0 0.29 -0.21 0 -80.61 59.75)" gradientUnits="userSpaceOnUse" id="b4c5cb09-c713-4241-9ec7-4daa559f07c9" node-id="15" spreadMethod="pad" x1="431.62" x2="388.76" y1="-1313.46" y2="-1218.08"><stop offset="0" stop-color="#cccccc" stop-opacity="0.6"></stop><stop offset="1" stop-color="#dfdfdf" stop-opacity="0"></stop></linearGradient><linearGradient gradientUnits="userSpaceOnUse" id="bdb65904-a7f3-4375-a50e-eeeba36f35e8" node-id="18" spreadMethod="pad" x1="43.87" x2="106.61" y1="96.46" y2="96.46"><stop offset="0.14" stop-color="#e6e6e6" stop-opacity="0.5"></stop><stop offset="1" stop-color="#f2f6fa" stop-opacity="0"></stop></linearGradient><linearGradient gradientUnits="userSpaceOnUse" id="b47729b9-6a28-4b90-ad7b-d68e6fc69bba" node-id="21" spreadMethod="pad" x1="144.68" x2="181.19" y1="43.45" y2="43.45"><stop offset="0" stop-color="#f2f6fa" stop-opacity="0"></stop><stop offset="0.7" stop-color="#e6e6e6" stop-opacity="0.5"></stop></linearGradient><linearGradient gradientTransform="matrix(0.9944303 -0.10539631 0.10539631 0.9944303 -15.07 -49.97)" gradientUnits="userSpaceOnUse" id="add48cd5-230e-4085-8f5c-24730f0e5adf" node-id="22" spreadMethod="pad" x1="93.86" x2="176.13" y1="220.15" y2="220.15"><stop offset="0" stop-color="#cbcbcb" stop-opacity="0.4"></stop><stop offset="0.25" stop-color="#cccccc"></stop><stop offset="1" stop-color="#bababa" stop-opacity="0.5"></stop></linearGradient><linearGradient gradientUnits="userSpaceOnUse" id="ef43e3fa-4dba-4ae0-9366-8c38612e65e6" node-id="26" spreadMethod="pad" x1="71.2" x2="125.52" y1="4.89" y2="4.89"><stop offset="0.69" stop-color="#dfdfdf" stop-opacity="0.7"></stop><stop offset="1" stop-color="#f4f4f4" stop-opacity="0"></stop></linearGradient><linearGradient gradientUnits="userSpaceOnUse" id="a27bf3df-e7eb-4507-b513-280f3ced7c56" node-id="29" spreadMethod="pad" x1="63.53" x2="179.85" y1="123.99" y2="123.99"><stop offset="0" stop-color="#cbcbcb"></stop><stop offset="1" stop-color="#f4f4f4"></stop></linearGradient><linearGradient gradientUnits="userSpaceOnUse" id="b6f5d17e-7959-4fe8-a68c-7b6e080eb91f" node-id="32" spreadMethod="pad" x1="81.3" x2="148.1" y1="131.63" y2="131.63"><stop offset="0.69" stop-color="#dfdfdf" stop-opacity="0.7"></stop><stop offset="1" stop-color="#f4f4f4" stop-opacity="0"></stop></linearGradient><linearGradient gradientUnits="userSpaceOnUse" id="b3d44b54-c3a1-4c60-b058-792ca2786ccd" node-id="33" spreadMethod="pad" x1="81.3" x2="114.55" y1="145.24" y2="145.24"><stop offset="0.69" stop-color="#dfdfdf" stop-opacity="0.7"></stop><stop offset="1" stop-color="#f4f4f4" stop-opacity="0"></stop></linearGradient><linearGradient gradientUnits="userSpaceOnUse" id="b31db24f-13d8-40c1-a034-ccc8e177517d" node-id="34" spreadMethod="pad" x1="103.68" x2="103.62" y1="82.29" y2="72.62"><stop offset="0" stop-color="#dce3ed"></stop><stop offset="1" stop-color="#94c4ff"></stop></linearGradient><linearGradient gradientUnits="userSpaceOnUse" id="bdf9544a-e3f5-489d-a48e-14f363ff1cf1" node-id="37" spreadMethod="pad" x1="139.78" x2="139.72" y1="82.29" y2="72.62"><stop offset="0" stop-color="#dce3ed"></stop><stop offset="1" stop-color="#94c4ff"></stop></linearGradient><linearGradient gradientUnits="userSpaceOnUse" id="be63986e-7227-44df-ac93-2afaa79a214b" node-id="38" spreadMethod="pad" x1="180.99" x2="180" y1="153.49" y2="147"><stop offset="0.21" stop-color="#ff9084"></stop><stop offset="0.83" stop-color="#ffc8ae"></stop></linearGradient><linearGradient gradientUnits="userSpaceOnUse" id="aaa13026-5f53-41d4-8dcc-e57f3689b0ff" node-id="41" spreadMethod="pad" x1="172.42" x2="168.73" y1="158.39" y2="143.36"><stop offset="0.21" stop-color="#ff9084"></stop><stop offset="0.83" stop-color="#ffc8ae"></stop></linearGradient><linearGradient gradientUnits="userSpaceOnUse" id="ff1414c6-f3e7-46b3-9c42-383830980021" node-id="42" spreadMethod="pad" x1="164.8" x2="164.01" y1="156.97" y2="144.11"><stop offset="0.21" stop-color="#ff9084"></stop><stop offset="0.83" stop-color="#ffc8ae"></stop></linearGradient></defs><path d="M 64.82 164.31 C 64.82 164.31 75.09 203.58 151.17 210.36 L 221.28 196.80 C 221.28 196.80 198.00 168.18 182.11 162.59 C 146.54 150.00 64.82 164.31 64.82 164.31 Z" fill="url(#b534ba62-25fa-4312-a652-955fe6b5156f)" fill-rule="nonzero" node-id="203" stroke="none" target-height="60.36" target-width="156.45999" target-x="64.82" target-y="150"></path><path d="M 47.44 166.68 C 43.12 163.81 37.63 157.80 37.50 153.54 C 38.20 153.65 38.82 154.04 39.22 154.63 C 39.22 154.63 48.89 167.31 44.22 156.82 C 42.02 151.87 39.22 146.92 37.73 142.06 C 35.00 133.18 42.00 132.91 47.00 143.24 C 47.66 144.61 51.74 155.38 53.94 154.89 C 54.21 154.80 54.41 154.57 54.46 154.29 C 55.12 152.43 54.59 149.29 56.72 149.16 C 58.59 149.05 61.16 151.51 62.84 153.77 C 66.22 158.37 68.26 165.13 64.59 167.18 C 60.92 169.23 53.16 170.45 47.52 166.71 Z" fill="url(#e2c85c89-fe17-4baa-b000-43cd90f0ef93)" fill-rule="nonzero" node-id="205" stroke="none" target-height="37.539993" target-width="33.260002" target-x="35" target-y="132.91"></path><path d="M 203.58 127.57 C 203.58 127.57 190.26 143.07 190.70 157.38 L 195.00 157.38 C 195.00 157.38 196.56 140.12 203.58 127.57 Z M 214.26 106.87 C 211.31 110.57 209.42 115.81 211.18 120.50 C 212.41 123.73 216.09 123.75 215.83 128.24 C 215.58 130.48 214.81 132.64 213.58 134.53 C 211.49 138.18 208.93 141.54 205.97 144.53 C 208.44 146.45 209.70 149.54 209.27 152.64 C 208.78 155.72 207.32 158.56 205.10 160.75 C 204.45 161.55 203.59 162.16 202.63 162.52 C 201.69 162.74 200.72 162.74 199.78 162.52 C 195.18 161.74 190.72 160.32 186.52 158.29 C 183.90 157.05 181.22 155.29 180.33 152.63 C 179.33 149.52 180.94 148.53 182.71 147.55 L 183.16 147.30 C 184.10 146.87 184.92 146.19 185.52 145.35 C 186.81 143.23 186.85 140.35 187.31 138.03 C 187.98 134.54 186.99 128.17 191.36 126.81 C 193.06 126.28 194.90 126.40 196.59 125.81 C 200.27 124.64 201.80 121.18 203.27 117.69 L 203.54 117.06 C 204.26 115.09 205.27 113.23 206.54 111.56 C 208.43 109.43 213.00 108.37 214.26 106.87 Z" fill="url(#ad364dd6-ee6f-468d-adcb-c3ed06e30895)" fill-rule="nonzero" node-id="207" stroke="none" target-height="55.870003" target-width="36.759995" target-x="179.33" target-y="106.87"></path><path d="M 237.50 197.69 C 221.50 173.69 193.07 145.74 120.00 151.69 C 28.74 159.12 8.08 186.67 3.65 196.00 C 2.94 196.90 2.54 198.00 2.50 199.15 C 2.50 211.57 55.11 221.65 120.00 221.65 C 184.89 221.65 237.50 211.57 237.50 199.15 C 237.49 198.64 237.40 198.13 237.23 197.65 Z" fill="url(#fd7662a3-17fe-4a7b-85ae-f5fd22a70aa2)" fill-rule="nonzero" node-id="209" stroke="none" target-height="75.90999" target-width="235" target-x="2.5" target-y="145.74"></path><g node-id="312"><path d="M 179.36 175.03 L 183.51 175.38 L 187.03 175.90 L 190.24 176.63 L 192.43 177.39 L 193.68 178.07 L 194.26 178.66 L 194.42 179.18 L 194.20 179.68 L 193.57 180.20 L 192.24 180.74 L 189.99 181.26 L 186.71 181.64 L 183.16 181.78 L 179.00 181.68 L 174.85 181.32 L 171.33 180.80 L 168.11 180.07 L 165.93 179.31 L 164.68 178.63 L 164.10 178.05 L 163.94 177.52 L 164.16 177.02 L 164.79 176.50 L 166.11 175.96 L 168.36 175.44 L 171.64 175.06 L 175.20 174.92 L 179.36 175.03 Z" fill="url(#b4c5cb09-c713-4241-9ec7-4daa559f07c9)" fill-rule="nonzero" group-id="1" node-id="213" stroke="none" target-height="6.8600006" target-width="30.479996" target-x="163.94" target-y="174.92"></path></g><path d="M 43.91 106.07 C 45.09 101.71 49.75 88.49 61.20 96.55 C 61.20 96.55 67.61 75.36 86.87 92.02 C 86.87 92.02 96.65 85.88 101.47 98.02 C 101.47 98.02 107.47 100.53 106.47 105.57 L 44.89 107.25 C 44.59 107.25 44.31 107.12 44.12 106.89 C 43.94 106.66 43.86 106.36 43.91 106.07 Z" fill="url(#bdb65904-a7f3-4375-a50e-eeeba36f35e8)" fill-rule="nonzero" node-id="216" stroke="none" target-height="31.89" target-width="63.61" target-x="43.86" target-y="75.36"></path><path d="M 144.68 49.07 C 144.68 49.07 147.77 40.43 152.91 43.72 C 152.91 43.72 158.81 32.72 169.64 40.84 C 169.64 40.84 174.75 39.36 177.46 45.33 C 177.46 45.33 180.13 44.88 181.19 46.87 Z" fill="url(#b47729b9-6a28-4b90-ad7b-d68e6fc69bba)" fill-rule="nonzero" node-id="218" stroke="none" target-height="16.349998" target-width="36.51001" target-x="144.68" target-y="32.72"></path><path d="M 217.55 95.27 C 217.55 98.03 215.31 100.27 212.55 100.27 C 209.79 100.27 207.55 98.03 207.55 95.27 C 207.55 92.51 209.79 90.27 212.55 90.27 C 215.31 90.27 217.55 92.51 217.55 95.27 Z" fill="none" node-id="220" stroke="#f2f6fa" stroke-linecap="butt" stroke-width="1" target-height="10" target-width="10" target-x="207.55" target-y="90.27"></path><path d="M 55.00 68.54 L 62.07 61.47" fill="none" node-id="222" stroke="#f2f6fa" stroke-linecap="round" stroke-width="2" target-height="7.0699997" target-width="7.0699997" target-x="55" target-y="61.47"></path><path d="M 62.07 68.54 L 55.00 61.47" fill="none" node-id="224" stroke="#f2f6fa" stroke-linecap="round" stroke-width="2" target-height="7.0699997" target-width="7.0699997" target-x="55" target-y="61.47"></path><path d="M 28.88 171.11 C 28.88 171.11 18.41 160.79 24.30 162.42 C 30.19 164.05 32.81 170.57 32.81 170.57 C 32.81 170.57 30.19 159.16 36.09 159.71 C 41.99 160.26 37.40 170.00 37.40 170.00 C 37.40 170.00 34.12 178.17 28.88 171.11 Z" fill="#f2f2f2" fill-rule="nonzero" node-id="226" stroke="none" target-height="19.009995" target-width="23.580002" target-x="18.41" target-y="159.16"></path><path d="M 208.00 166.69 C 208.00 166.69 212.00 152.69 214.00 152.69 C 216.00 152.69 219.00 166.69 219.00 166.69 C 219.00 166.69 215.00 171.69 208.00 166.69 Z" fill="#dfdfdf" fill-rule="nonzero" node-id="228" stroke="none" target-height="19" target-width="11" target-x="208" target-y="152.69"></path><path d="M 213.50 165.69 L 213.50 165.69 C 214.05 165.69 214.50 166.14 214.50 166.69 L 214.50 174.69 C 214.50 175.24 214.05 175.69 213.50 175.69 L 213.50 175.69 C 212.95 175.69 212.50 175.24 212.50 174.69 L 212.50 166.69 C 212.50 166.14 212.95 165.69 213.50 165.69 Z" fill="#dfdfdf" fill-rule="nonzero" node-id="230" stroke="none" target-height="10" target-width="2" target-x="212.5" target-y="165.69"></path><path d="M 217.39 180.60 C 217.39 180.60 219.65 172.69 220.78 172.69 C 221.91 172.69 223.61 180.60 223.61 180.60 C 223.61 180.60 221.35 183.43 217.39 180.60 Z" fill="#dfdfdf" fill-rule="nonzero" node-id="232" stroke="none" target-height="10.73999" target-width="6.220001" target-x="217.39" target-y="172.69"></path><path d="M 220.50 180.04 L 220.50 180.04 C 220.81 180.04 221.06 180.30 221.06 180.61 L 221.06 185.12 C 221.06 185.43 220.81 185.69 220.50 185.69 L 220.50 185.69 C 220.18 185.69 219.93 185.43 219.93 185.12 L 219.93 180.61 C 219.93 180.30 220.18 180.04 220.50 180.04 Z" fill="#dfdfdf" fill-rule="nonzero" node-id="234" stroke="none" target-height="5.650009" target-width="1.1300049" target-x="219.93" target-y="180.04"></path><path d="M 208.00 34.25 C 209.00 42.43 200.06 46.98 198.26 42.31 C 196.46 37.64 206.26 38.13 204.36 44.24 C 202.46 50.35 194.68 46.92 194.68 46.92" fill="none" node-id="236" stroke="#f2f2f2" stroke-linecap="butt" stroke-width="1" target-height="16.099998" target-width="14.320007" target-x="194.68" target-y="34.25"></path><path d="M 180.57 150.00 C 180.01 150.53 179.43 151.05 178.85 151.55 C 179.49 151.12 180.07 150.60 180.57 150.00 Z" fill="url(#add48cd5-230e-4085-8f5c-24730f0e5adf)" fill-rule="nonzero" node-id="238" stroke="none" target-height="1.550003" target-width="1.7200012" target-x="178.85" target-y="150"></path><path d="M 15.86 43.16 L 58.29 18.66 L 59.30 18.33 L 60.31 18.40 L 61.22 18.84 L 61.92 19.64 L 62.10 19.94 L 62.44 20.95 L 62.37 21.96 L 61.92 22.87 L 61.13 23.57 L 18.69 48.07 L 17.68 48.41 L 16.67 48.34 L 15.76 47.90 L 15.06 47.10 L 14.88 46.80 L 14.54 45.79 L 14.62 44.78 L 15.06 43.87 L 15.86 43.16 Z" fill="url(#ef43e3fa-4dba-4ae0-9366-8c38612e65e6)" fill-rule="nonzero" group-id="2" node-id="242" stroke="none" target-height="30.08" target-width="47.899998" target-x="14.54" target-y="18.33"></path><path d="M 68.07 77.00 L 175.31 77.00 C 177.82 77.00 179.85 79.03 179.85 81.54 L 179.85 166.45 C 179.85 168.96 177.82 170.99 175.31 170.99 L 68.07 170.99 C 65.56 170.99 63.53 168.96 63.53 166.45 L 63.53 81.54 C 63.53 79.03 65.56 77.00 68.07 77.00 Z" fill="url(#a27bf3df-e7eb-4507-b513-280f3ced7c56)" fill-rule="nonzero" node-id="245" stroke="none" target-height="93.990005" target-width="116.32001" target-x="63.53" target-y="77"></path><path d="M 73.45 117.23 L 171.87 117.23 C 173.54 117.23 174.90 118.59 174.90 120.26 L 174.90 160.67 C 174.90 162.34 173.54 163.70 171.87 163.70 L 73.45 163.70 C 71.78 163.70 70.42 162.34 70.42 160.67 L 70.42 120.26 C 70.42 118.59 71.78 117.23 73.45 117.23 Z" fill="#ffffff" fill-opacity="0.76" fill-rule="nonzero" group-id="3" node-id="249" stroke="none" target-height="46.469994" target-width="104.479996" target-x="70.42" target-y="117.23"></path><path d="M 72.27 91.11 L 173.03 91.11 C 174.05 91.11 174.88 91.94 174.88 92.96 L 174.88 106.54 C 174.88 107.56 174.05 108.39 173.03 108.39 L 72.27 108.39 C 71.25 108.39 70.42 107.56 70.42 106.54 L 70.42 92.96 C 70.42 91.94 71.25 91.11 72.27 91.11 Z" fill="#ffffff" fill-opacity="0.76" fill-rule="nonzero" group-id="4" node-id="254" stroke="none" target-height="17.279999" target-width="104.46001" target-x="70.42" target-y="91.11"></path><path d="M 84.38 128.56 L 145.02 128.56 C 146.72 128.56 148.10 129.94 148.10 131.63 L 148.10 131.63 C 148.10 133.33 146.72 134.71 145.02 134.71 L 84.38 134.71 C 82.68 134.71 81.30 133.33 81.30 131.63 L 81.30 131.63 C 81.30 129.94 82.68 128.56 84.38 128.56 Z" fill="url(#b6f5d17e-7959-4fe8-a68c-7b6e080eb91f)" fill-rule="nonzero" node-id="257" stroke="none" target-height="6.150009" target-width="66.8" target-x="81.3" target-y="128.56"></path><path d="M 83.47 142.16 L 112.39 142.16 C 113.59 142.16 114.56 143.13 114.56 144.33 L 114.56 146.14 C 114.56 147.34 113.59 148.31 112.39 148.31 L 83.47 148.31 C 82.27 148.31 81.30 147.34 81.30 146.14 L 81.30 144.33 C 81.30 143.13 82.27 142.16 83.47 142.16 Z" fill="url(#b3d44b54-c3a1-4c60-b058-792ca2786ccd)" fill-rule="nonzero" node-id="259" stroke="none" target-height="6.149994" target-width="33.259995" target-x="81.3" target-y="142.16"></path><path d="M 103.64 65.30 L 103.64 65.30 C 106.05 65.30 108.01 67.26 108.01 69.68 L 108.01 81.85 C 108.01 84.27 106.05 86.23 103.64 86.23 L 103.64 86.23 C 101.22 86.23 99.26 84.27 99.26 81.85 L 99.26 69.68 C 99.26 67.26 101.22 65.30 103.64 65.30 Z" fill="url(#b31db24f-13d8-40c1-a034-ccc8e177517d)" fill-rule="nonzero" node-id="261" stroke="none" target-height="20.93" target-width="8.75" target-x="99.26" target-y="65.3"></path><path d="M 139.74 65.30 L 139.74 65.30 C 142.15 65.30 144.11 67.26 144.11 69.68 L 144.11 81.85 C 144.11 84.27 142.15 86.23 139.74 86.23 L 139.74 86.23 C 137.32 86.23 135.36 84.27 135.36 81.85 L 135.36 69.68 C 135.36 67.26 137.32 65.30 139.74 65.30 Z" fill="url(#bdf9544a-e3f5-489d-a48e-14f363ff1cf1)" fill-rule="nonzero" node-id="263" stroke="none" target-height="20.93" target-width="8.75" target-x="135.36" target-y="65.3"></path><path d="M 93.98 99.96 C 93.98 101.87 92.43 103.42 90.52 103.42 C 88.61 103.42 87.06 101.87 87.06 99.96 C 87.06 98.05 88.61 96.50 90.52 96.50 C 92.43 96.50 93.98 98.05 93.98 99.96 Z" fill="#cccccc" fill-opacity="0.55" fill-rule="nonzero" group-id="5" node-id="267" stroke="none" target-height="6.919998" target-width="6.920006" target-x="87.06" target-y="96.5"></path><path d="M 103.28 99.96 C 103.28 101.87 101.73 103.42 99.82 103.42 C 97.91 103.42 96.36 101.87 96.36 99.96 C 96.36 98.05 97.91 96.50 99.82 96.50 C 101.73 96.50 103.28 98.05 103.28 99.96 Z" fill="#cccccc" fill-opacity="0.55" fill-rule="nonzero" group-id="5" node-id="269" stroke="none" target-height="6.919998" target-width="6.919998" target-x="96.36" target-y="96.5"></path><path d="M 84.68 99.96 C 84.68 101.87 83.13 103.42 81.22 103.42 C 79.31 103.42 77.76 101.87 77.76 99.96 C 77.76 98.05 79.31 96.50 81.22 96.50 C 83.13 96.50 84.68 98.05 84.68 99.96 Z" fill="#cccccc" fill-opacity="0.55" fill-rule="nonzero" group-id="5" node-id="271" stroke="none" target-height="6.919998" target-width="6.919998" target-x="77.76" target-y="96.5"></path><path d="M 157.68 127.07 L 164.52 127.07 C 165.86 127.07 166.94 128.15 166.94 129.49 L 166.94 136.58 C 166.94 137.92 165.86 139.00 164.52 139.00 L 157.68 139.00 C 156.34 139.00 155.26 137.92 155.26 136.58 L 155.26 129.49 C 155.26 128.15 156.34 127.07 157.68 127.07 Z" fill="none" node-id="274" stroke="#e6e6e6" stroke-linecap="butt" stroke-width="2" target-height="11.93" target-width="11.680008" target-x="155.26" target-y="127.07"></path><path d="M 179.36 143.35 C 179.58 143.35 180.18 143.56 181.06 145.22 C 182.19 147.35 183.83 153.76 183.83 153.76 L 178.93 155.58 L 178.30 154.24 L 177.30 143.94 C 177.30 143.94 179.30 143.35 179.36 143.35 Z" fill="url(#be63986e-7227-44df-ac93-2afaa79a214b)" fill-rule="nonzero" node-id="276" stroke="none" target-height="12.229996" target-width="6.529999" target-x="177.3" target-y="143.35"></path><path d="M 172.89 142.43 C 175.07 142.50 177.24 142.81 179.36 143.35 C 179.36 143.35 180.54 153.51 178.30 161.23 C 177.80 162.96 178.71 168.39 178.71 168.39 L 164.20 168.20 C 164.20 168.20 165.92 155.06 165.27 152.94 C 164.62 150.82 164.61 143.42 164.61 143.42 L 167.87 142.86 C 169.53 142.59 171.21 142.44 172.89 142.43 Z" fill="url(#aaa13026-5f53-41d4-8dcc-e57f3689b0ff)" fill-rule="nonzero" node-id="278" stroke="none" target-height="25.960007" target-width="16.339996" target-x="164.2" target-y="142.43"></path><path d="M 164.45 144.55 C 165.81 144.04 166.45 156.27 166.65 161.30 C 169.20 161.44 171.75 161.41 174.29 161.23 C 174.78 161.23 175.91 160.78 176.40 160.71 C 176.80 160.65 177.20 160.63 177.60 160.65 C 178.56 161.01 179.50 161.43 180.41 161.92 C 180.67 162.20 181.41 162.92 181.27 163.21 C 181.13 163.50 179.89 162.36 179.89 162.36 L 179.27 162.01 C 180.04 162.76 181.50 163.75 181.27 164.11 C 181.04 164.47 179.75 163.46 178.81 162.77 C 179.61 163.50 180.62 164.77 180.38 165.01 C 180.14 165.25 179.04 163.68 177.82 163.25 C 177.37 163.09 176.92 163.53 176.56 163.59 C 176.26 163.64 175.94 163.64 175.64 163.59 L 174.32 163.21 C 173.87 163.26 173.86 163.52 173.41 163.62 C 172.96 163.72 172.02 163.85 171.35 164.01 C 167.48 164.96 166.19 165.39 165.01 165.39 C 161.45 165.44 161.24 145.75 164.45 144.55 Z" fill="#fbdbbe" fill-rule="nonzero" node-id="280" stroke="none" target-height="21.40001" target-width="20.259995" target-x="161.24" target-y="144.04"></path><path d="M 161.87 156.00 C 161.62 150.85 161.66 144.49 164.55 143.41 C 165.69 142.98 167.70 145.55 167.34 156.11 C 165.52 156.30 163.68 156.27 161.87 156.00 Z" fill="url(#ff1414c6-f3e7-46b3-9c42-383830980021)" fill-rule="nonzero" node-id="282" stroke="none" target-height="13.320007" target-width="6.080002" target-x="161.62" target-y="142.98"></path><path d="M 191.00 153.82 L 177.30 153.82 C 176.94 153.82 176.61 154.04 176.47 154.37 L 172.25 164.70 L 164.70 164.70 C 164.60 164.70 164.50 164.74 164.42 164.81 C 164.35 164.88 164.31 164.98 164.31 165.08 L 164.31 165.08 C 164.31 165.30 164.48 165.47 164.70 165.47 L 186.20 165.47 C 186.79 165.47 187.33 165.12 187.57 164.58 L 191.82 155.08 C 191.94 154.80 191.91 154.48 191.75 154.23 C 191.58 153.98 191.30 153.82 191.00 153.82 Z" fill="#dfdfdf" fill-rule="nonzero" node-id="284" stroke="none" target-height="11.649994" target-width="27.630005" target-x="164.31" target-y="153.82"></path><path d="M 183.60 159.83 C 183.46 160.20 183.05 160.40 182.67 160.28 C 182.29 160.16 182.07 159.77 182.17 159.38 C 182.27 159.00 182.65 158.75 183.04 158.83 C 183.25 158.89 183.43 159.02 183.53 159.21 C 183.64 159.40 183.66 159.62 183.60 159.83 Z" fill="#ffffff" fill-rule="nonzero" node-id="286" stroke="none" target-height="1.6499939" target-width="1.5899963" target-x="182.07" target-y="158.75"></path><path d="M 176.14 130.00 C 175.73 129.87 175.32 129.70 174.93 129.52 C 174.50 129.29 174.03 129.11 173.55 129.00 C 172.55 128.81 171.52 129.08 170.74 129.74 C 169.84 130.74 168.23 129.92 168.56 135.06 C 168.92 140.87 172.16 140.23 172.24 140.13 L 175.12 136.41 C 175.12 136.41 176.12 138.56 176.12 138.48 C 176.12 138.40 181.11 131.69 176.14 130.00 Z" fill="#313162" fill-rule="nonzero" node-id="288" stroke="none" target-height="12.059998" target-width="12.880005" target-x="168.23" target-y="128.81"></path><path d="M 174.00 142.66 L 174.00 142.34 L 174.00 142.34 L 173.76 140.58 L 170.76 137.31 L 170.48 142.57 C 170.48 142.57 173.10 146.81 173.90 146.23 C 174.70 145.65 174.00 142.66 174.00 142.66 Z" fill="#fdecdb" fill-rule="nonzero" node-id="290" stroke="none" target-height="9.5" target-width="4.220001" target-x="170.48" target-y="137.31"></path><path d="M 173.53 131.58 C 171.84 131.98 170.55 133.32 170.21 135.02 L 170.21 135.02 C 169.97 134.99 169.72 135.06 169.53 135.21 C 169.34 135.37 169.23 135.60 169.21 135.84 C 169.09 136.31 169.37 136.79 169.83 136.93 L 170.00 136.93 C 170.15 138.94 171.47 140.68 173.36 141.37 C 174.45 141.56 176.08 139.45 176.45 137.05 C 176.59 136.17 176.67 135.27 176.69 134.38 C 176.70 133.57 176.36 132.79 175.75 132.25 C 175.15 131.71 174.33 131.47 173.53 131.58 Z" fill="#fef2e3" fill-rule="nonzero" node-id="292" stroke="none" target-height="10.089996" target-width="7.6100006" target-x="169.09" target-y="131.47"></path><path d="M 170.21 135.00 C 170.21 135.00 171.51 135.32 172.00 134.48 C 172.49 133.64 174.22 131.82 176.43 132.58 C 178.64 133.34 174.49 130.75 174.31 130.75 L 172.01 130.75 C 172.01 130.75 170.38 132.10 170.32 132.24 C 170.26 132.38 169.79 134.00 169.79 134.00 Z" fill="#313162" fill-rule="nonzero" node-id="294" stroke="none" target-height="4.5700073" target-width="8.850006" target-x="169.79" target-y="130.75"></path><path d="M 172.60 138.53 L 175.00 139.00 C 174.84 139.55 174.27 139.87 173.72 139.73 C 172.42 139.50 172.60 138.53 172.60 138.53 Z" fill="#ffffff" fill-rule="nonzero" node-id="296" stroke="none" target-height="1.3399963" target-width="2.5800018" target-x="172.42" target-y="138.53"></path><path d="M 184.57 163.00 C 186.20 169.44 191.68 174.43 193.31 176.72 C 193.52 176.97 193.67 177.26 193.76 177.57 C 194.11 179.35 194.87 180.57 198.52 179.95 C 202.17 179.33 206.67 177.52 204.87 176.64 C 203.07 175.76 198.67 177.29 196.87 176.25 C 196.50 175.93 196.21 175.53 196.03 175.08 C 194.03 171.23 190.85 159.54 188.51 159.02 C 187.91 158.89 187.28 158.91 186.69 159.09 C 185.06 159.63 184.13 161.34 184.57 163.00 Z" fill="#fef2e3" fill-rule="nonzero" node-id="298" stroke="none" target-height="21.680008" target-width="22.539993" target-x="184.13" target-y="158.89"></path><path d="M 184.57 163.00 C 186.20 169.44 191.68 174.43 193.31 176.72 C 194.27 176.23 195.19 175.68 196.08 175.08 C 194.08 171.23 190.90 159.54 188.56 159.02 C 187.96 158.89 187.33 158.91 186.74 159.09 C 185.09 159.61 184.14 161.33 184.57 163.00 Z" fill="#769bdd" fill-rule="nonzero" node-id="300" stroke="none" target-height="17.830002" target-width="11.940002" target-x="184.14" target-y="158.89"></path><path d="M 164.12 167.65 C 164.12 167.65 163.87 173.21 163.89 173.33 C 164.07 174.42 165.31 180.00 171.71 178.45 C 178.81 176.74 182.71 168.75 182.71 168.75 C 182.71 168.75 187.40 174.75 191.06 179.24 C 192.05 180.53 193.11 181.76 194.23 182.94 C 195.99 184.17 203.23 181.10 204.57 179.17 C 205.91 177.24 196.78 179.81 193.96 176.85 C 193.89 176.79 193.83 176.73 193.78 176.66 C 193.78 176.66 186.55 160.05 183.26 159.55 C 182.04 159.37 180.11 160.71 178.06 162.55 C 174.58 165.65 168.36 166.17 166.93 167.10 C 164.65 168.58 164.12 167.65 164.12 167.65 Z" fill="#8faded" fill-rule="nonzero" node-id="302" stroke="none" target-height="24.800003" target-width="42.04001" target-x="163.87" target-y="159.37"></path><path d="M 191.08 179.24 C 192.07 180.53 193.12 181.76 194.24 182.94 C 195.36 183.72 198.70 182.76 201.33 181.47 L 201.33 181.47 L 201.78 181.24 C 202.85 180.75 203.80 180.05 204.58 179.17 C 205.87 177.27 196.79 179.81 193.97 176.85 C 193.13 177.78 192.15 178.59 191.08 179.24 Z" fill="#fef2e3" fill-rule="nonzero" node-id="304" stroke="none" target-height="6.869995" target-width="14.789993" target-x="191.08" target-y="176.85"></path><path d="M 199.00 176.44 C 198.21 177.43 197.74 178.63 197.63 179.89 C 197.56 181.61 195.85 179.80 195.63 180.27 C 195.41 180.74 194.29 183.72 194.29 183.72 L 206.53 177.00 C 207.35 176.49 207.42 175.63 206.43 175.50 C 205.84 175.45 205.25 175.45 204.66 175.50 C 202.76 175.72 200.87 176.03 199.00 176.44 Z" fill="#45487a" fill-rule="nonzero" node-id="306" stroke="none" target-height="8.270004" target-width="13.130005" target-x="194.29" target-y="175.45"></path><path d="M 192.34 181.05 C 194.34 183.42 193.60 183.65 193.91 183.87 C 195.22 184.75 198.82 183.78 201.61 181.97 L 201.61 181.97 L 202.09 181.65 C 203.25 180.94 204.25 179.99 205.01 178.86 C 206.26 176.40 203.57 179.08 198.01 178.59 C 197.40 179.45 195.44 180.77 192.34 181.05 Z" fill="#45487a" fill-rule="nonzero" node-id="308" stroke="none" target-height="8.350006" target-width="13.919998" target-x="192.34" target-y="176.4"></path><path d="M 200.90 180.31 L 201.06 180.21 Z" fill="#cc8672" fill-rule="nonzero" node-id="310" stroke="none" target-height="0.099990845" target-width="0.16000366" target-x="200.9" target-y="180.21"></path></svg>