<svg height="1024" node-id="1" sillyvg="true" template-height="1024" template-width="1024" version="1.1" viewBox="0 0 1024 1024" width="1024" xmlns="http://www.w3.org/2000/svg" xmlns:xlink="http://www.w3.org/1999/xlink"><defs node-id="102"><linearGradient gradientUnits="objectBoundingBox" id="linearGradient-1" node-id="5" spreadMethod="pad" x1="0.34655142" x2="0.5" y1="0.23235148" y2="0.6364441"><stop offset="0" stop-color="#e6e8ed"></stop><stop offset="1" stop-color="#ffffff" stop-opacity="0"></stop></linearGradient><linearGradient gradientUnits="objectBoundingBox" id="linearGradient-2" node-id="8" spreadMethod="pad" x1="0.34655142" x2="0.5" y1="0.23235148" y2="0.6364441"><stop offset="0" stop-color="#e6e8ed"></stop><stop offset="1" stop-color="#ffffff" stop-opacity="0"></stop></linearGradient><linearGradient gradientUnits="objectBoundingBox" id="linearGradient-3" node-id="11" spreadMethod="pad" x1="0.34655142" x2="0.5" y1="0.23235148" y2="0.6364441"><stop offset="0" stop-color="#e6e8ed"></stop><stop offset="1" stop-color="#ffffff"></stop></linearGradient><linearGradient gradientUnits="objectBoundingBox" id="linearGradient-4" node-id="14" spreadMethod="pad" x1="0.34655142" x2="0.5" y1="0.23235148" y2="0.6364441"><stop offset="0" stop-color="#e6e8ed"></stop><stop offset="1" stop-color="#ffffff"></stop></linearGradient><linearGradient gradientUnits="objectBoundingBox" id="linearGradient-5" node-id="17" spreadMethod="pad" x1="0.5" x2="0.5" y1="0" y2="1"><stop offset="0" stop-color="#eeeeee"></stop><stop offset="1" stop-color="#d0d3df"></stop></linearGradient><linearGradient gradientUnits="objectBoundingBox" id="linearGradient-6" node-id="20" spreadMethod="pad" x1="0.5" x2="0.5" y1="0" y2="1"><stop offset="0" stop-color="#d1d4df"></stop><stop offset="1" stop-color="#e8ebf0"></stop></linearGradient><linearGradient gradientUnits="objectBoundingBox" id="linearGradient-7" node-id="23" spreadMethod="pad" x1="0.5" x2="0.5" y1="0" y2="1"><stop offset="0" stop-color="#d1d4df"></stop><stop offset="1" stop-color="#e8ebf0"></stop></linearGradient><linearGradient gradientUnits="objectBoundingBox" id="linearGradient-8" node-id="26" spreadMethod="pad" x1="0.5" x2="0.5" y1="0.016121583" y2="1"><stop offset="0" stop-color="#f4f7fb"></stop><stop offset="1" stop-color="#d6d8e2"></stop><stop offset="1" stop-color="#d8d8d8"></stop></linearGradient><linearGradient gradientUnits="objectBoundingBox" id="linearGradient-9" node-id="30" spreadMethod="pad" x1="0.5" x2="0.5" y1="0" y2="1"><stop offset="0" stop-color="#eef0f4"></stop><stop offset="0.66519976" stop-color="#f7f8f9"></stop><stop offset="1" stop-color="#fcfcfc" stop-opacity="0"></stop></linearGradient><linearGradient gradientUnits="objectBoundingBox" id="linearGradient-10" node-id="34" spreadMethod="pad" x1="0.5" x2="0.5" y1="0" y2="1"><stop offset="0" stop-color="#eef1f8"></stop><stop offset="0.5783102" stop-color="#e9ebf0"></stop><stop offset="1" stop-color="#f4f6f8" stop-opacity="0"></stop></linearGradient><linearGradient gradientUnits="objectBoundingBox" id="linearGradient-11" node-id="38" spreadMethod="pad" x1="0.5" x2="0.5" y1="0" y2="1"><stop offset="0" stop-color="#eef0f4"></stop><stop offset="0.66519976" stop-color="#f7f8f9"></stop><stop offset="1" stop-color="#fcfcfc" stop-opacity="0"></stop></linearGradient><linearGradient gradientUnits="objectBoundingBox" id="linearGradient-12" node-id="42" spreadMethod="pad" x1="0.5" x2="0.5" y1="0" y2="1"><stop offset="0" stop-color="#eef1f8"></stop><stop offset="0.5783102" stop-color="#e9ebf0"></stop><stop offset="1" stop-color="#f4f6f8" stop-opacity="0"></stop></linearGradient></defs><path d="M 235.47 690.64 C 195.66 649.34 200.75 622.42 250.74 609.88 C 254.41 609.99 296.20 549.35 349.25 609.88 C 359.67 620.83 415.24 654.19 349.25 690.64 C 305.26 714.95 267.33 714.95 235.47 690.64 Z" fill="url(#linearGradient-1)" fill-rule="evenodd" id="路径-212备份-2" node-id="47" stroke="none" target-height="165.60004" target-width="219.57999" target-x="195.66" target-y="549.35"></path><path d="M 530.47 752.64 C 490.66 711.34 495.75 684.42 545.74 671.88 C 549.41 671.99 591.20 611.35 644.25 671.88 C 654.67 682.83 710.24 716.19 644.25 752.64 C 600.26 776.95 562.33 776.95 530.47 752.64 Z" fill="url(#linearGradient-1)" fill-rule="evenodd" id="路径-212备份-3" node-id="48" stroke="none" target-height="165.60004" target-width="219.57999" target-x="490.66" target-y="611.35"></path><g node-id="185"><path d="M 462.39 618.34 L 455.27 617.30 L 449.64 615.93 L 445.27 614.31 L 441.93 612.49 L 439.45 610.51 L 437.67 608.38 L 436.48 606.07 L 435.85 603.53 L 435.78 600.68 L 436.33 597.42 L 437.64 593.65 L 439.87 589.27 L 443.22 584.17 L 443.44 583.53 L 443.73 581.15 L 444.07 578.34 L 444.73 574.56 L 445.79 570.65 L 447.50 566.48 L 449.01 563.83 L 450.93 561.34 L 453.32 558.97 L 456.03 557.01 L 459.37 555.39 L 463.46 554.11 L 466.55 553.57 L 470.15 553.33 L 474.34 553.45 L 479.19 553.98 L 484.41 554.12 L 487.82 554.21 L 491.67 554.54 L 495.49 555.24 L 499.10 556.46 L 501.31 557.64 L 503.22 559.18 L 504.86 561.11 L 506.04 563.32 L 506.81 566.13 L 507.09 569.70 L 506.80 573.29 L 505.81 577.81 L 503.94 583.48 L 501.20 589.87 L 498.24 595.44 L 495.09 600.26 L 491.76 604.42 L 488.24 607.96 L 484.53 610.94 L 480.62 613.40 L 476.48 615.36 L 472.09 616.84 L 467.40 617.84 L 462.39 618.34 Z" fill="url(#linearGradient-2)" fill-rule="evenodd" group-id="1" id="路径-212备份-4" node-id="49" stroke="none" target-height="65.01001" target-width="71.31" target-x="435.78" target-y="553.33"></path></g><path d="M 823.71 400.44 C 802.84 378.79 805.51 364.67 831.72 358.09 C 833.64 358.15 855.55 326.35 883.37 358.09 C 888.84 363.84 917.97 381.33 883.37 400.44 C 860.30 413.19 840.42 413.19 823.71 400.44 Z" fill="url(#linearGradient-3)" fill-rule="evenodd" id="路径-212备份" node-id="50" stroke="none" target-height="86.84" target-width="115.129944" target-x="802.84" target-y="326.35"></path><path d="M 149.47 388.64 C 109.66 347.34 114.75 320.42 164.74 307.88 C 168.41 307.99 210.20 247.35 263.25 307.88 C 273.67 318.83 329.24 352.19 263.25 388.64 C 219.26 412.95 181.33 412.95 149.47 388.64 Z" fill="url(#linearGradient-4)" fill-rule="evenodd" id="路径-212" node-id="51" stroke="none" target-height="165.6" target-width="219.57999" target-x="109.66" target-y="247.35"></path><path d="M 331.26 513.00 L 701.42 513.00 L 702.40 513.12 L 703.31 513.47 L 704.10 514.03 L 704.75 514.78 L 731.92 555.46 L 732.53 556.94 L 732.52 558.46 L 731.94 559.87 L 730.81 561.01 L 729.78 561.50 L 728.65 561.68 L 295.24 568.28 L 293.67 567.98 L 292.39 567.15 L 291.52 565.90 L 291.18 564.34 L 291.38 563.03 L 292.00 561.85 L 328.08 514.57 L 328.98 513.71 L 330.03 513.20 L 331.26 513.00 Z" fill="#f4f7fb" fill-rule="evenodd" group-id="2,8" id="矩形" node-id="54" stroke="none" target-height="55.28003" target-width="441.35004" target-x="291.18" target-y="513"></path><path d="M 296.85 555.77 L 729.57 555.77 L 730.75 556.01 L 731.69 556.65 L 732.33 557.59 L 732.57 558.77 L 732.57 570.00 L 732.33 571.18 L 731.69 572.12 L 730.75 572.76 L 729.57 573.00 L 296.85 573.00 L 295.68 572.76 L 294.73 572.12 L 294.09 571.18 L 293.85 570.00 L 293.85 558.77 L 294.09 557.59 L 294.73 556.65 L 295.68 556.01 L 296.85 555.77 Z" fill="url(#linearGradient-5)" fill-rule="evenodd" group-id="2,8" id="矩形" node-id="55" stroke="none" target-height="17.22998" target-width="438.72" target-x="293.85" target-y="555.77"></path><path d="M 358.00 427.00 L 382.00 427.00 L 382.00 537.00 L 381.68 538.57 L 380.83 539.83 L 379.57 540.68 L 378.00 541.00 L 362.00 541.00 L 360.43 540.68 L 359.17 539.83 L 358.32 538.57 L 358.00 537.00 L 358.00 427.00 L 358.00 427.00 Z" fill="url(#linearGradient-6)" fill-rule="evenodd" group-id="2" id="矩形" node-id="56" stroke="none" target-height="114" target-width="24" target-x="358" target-y="427"></path><path d="M 331.26 637.00 L 701.42 637.00 L 702.40 637.12 L 703.31 637.47 L 704.10 638.03 L 704.75 638.78 L 731.92 679.46 L 732.53 680.94 L 732.52 682.46 L 731.94 683.87 L 730.81 685.01 L 729.78 685.50 L 728.65 685.68 L 295.24 692.28 L 293.67 691.98 L 292.39 691.15 L 291.52 689.90 L 291.18 688.34 L 291.38 687.03 L 292.00 685.85 L 328.08 638.57 L 328.98 637.71 L 330.03 637.20 L 331.26 637.00 Z" fill="#f4f7fb" fill-rule="evenodd" group-id="2,9" id="矩形" node-id="58" stroke="none" target-height="55.28003" target-width="441.35004" target-x="291.18" target-y="637"></path><path d="M 296.85 679.77 L 729.57 679.77 L 730.75 680.01 L 731.69 680.65 L 732.33 681.59 L 732.57 682.77 L 732.57 694.00 L 732.33 695.18 L 731.69 696.12 L 730.75 696.76 L 729.57 697.00 L 296.85 697.00 L 295.68 696.76 L 294.73 696.12 L 294.09 695.18 L 293.85 694.00 L 293.85 682.77 L 294.09 681.59 L 294.73 680.65 L 295.68 680.01 L 296.85 679.77 Z" fill="url(#linearGradient-5)" fill-rule="evenodd" group-id="2,9" id="矩形" node-id="59" stroke="none" target-height="17.22998" target-width="438.72" target-x="293.85" target-y="679.77"></path><path d="M 358.00 573.00 L 382.00 573.00 L 382.00 656.00 L 381.68 657.57 L 380.83 658.83 L 379.57 659.68 L 378.00 660.00 L 362.00 660.00 L 360.43 659.68 L 359.17 658.83 L 358.32 657.57 L 358.00 656.00 L 358.00 573.00 L 358.00 573.00 Z" fill="url(#linearGradient-7)" fill-rule="evenodd" group-id="2" id="矩形备份" node-id="60" stroke="none" target-height="87" target-width="24" target-x="358" target-y="573"></path><path d="M 331.26 369.00 L 701.42 369.00 L 702.40 369.12 L 703.31 369.47 L 704.10 370.03 L 704.75 370.78 L 731.92 411.46 L 732.53 412.94 L 732.52 414.46 L 731.94 415.87 L 730.81 417.01 L 729.78 417.50 L 728.65 417.68 L 295.24 424.28 L 293.67 423.98 L 292.39 423.15 L 291.52 421.90 L 291.18 420.34 L 291.38 419.03 L 292.00 417.85 L 328.08 370.57 L 328.98 369.71 L 330.03 369.20 L 331.26 369.00 Z" fill="#f4f7fb" fill-rule="evenodd" group-id="2,10" id="矩形" node-id="62" stroke="none" target-height="55.28" target-width="441.35004" target-x="291.18" target-y="369"></path><path d="M 296.85 411.77 L 729.57 411.77 L 730.75 412.01 L 731.69 412.65 L 732.33 413.59 L 732.57 414.77 L 732.57 426.00 L 732.33 427.18 L 731.69 428.12 L 730.75 428.76 L 729.57 429.00 L 296.85 429.00 L 295.68 428.76 L 294.73 428.12 L 294.09 427.18 L 293.85 426.00 L 293.85 414.77 L 294.09 413.59 L 294.73 412.65 L 295.68 412.01 L 296.85 411.77 Z" fill="url(#linearGradient-5)" fill-rule="evenodd" group-id="2,10" id="矩形" node-id="63" stroke="none" target-height="17.230011" target-width="438.72" target-x="293.85" target-y="411.77"></path><path d="M 369.00 337.00 L 371.00 337.00 L 373.01 337.19 L 374.85 337.69 L 376.55 338.50 L 378.10 339.60 L 379.40 340.90 L 380.50 342.45 L 381.31 344.15 L 381.81 345.99 L 382.00 348.00 L 382.00 390.00 L 381.68 391.57 L 380.83 392.83 L 379.57 393.68 L 378.00 394.00 L 362.00 394.00 L 360.43 393.68 L 359.17 392.83 L 358.32 391.57 L 358.00 390.00 L 358.00 348.00 L 358.19 345.99 L 358.69 344.15 L 359.50 342.45 L 360.60 340.90 L 361.90 339.60 L 363.45 338.50 L 365.15 337.69 L 366.99 337.19 L 369.00 337.00 Z" fill="url(#linearGradient-8)" fill-rule="evenodd" group-id="2" id="矩形" node-id="64" stroke="none" target-height="57" target-width="24" target-x="358" target-y="337"></path><path d="M 367.00 716.00 L 373.00 716.00 L 375.41 715.67 L 377.54 714.77 L 379.36 713.36 L 380.77 711.54 L 381.67 709.41 L 382.00 707.00 L 382.00 695.00 L 382.00 695.00 L 358.00 695.00 L 358.00 707.00 L 358.33 709.41 L 359.23 711.54 L 360.64 713.36 L 362.46 714.77 L 364.59 715.67 L 367.00 716.00 Z" fill="#d2d5e0" fill-rule="evenodd" group-id="2,11" id="矩形备份-2" node-id="65" stroke="none" target-height="21" target-width="24" target-x="358" target-y="695"></path><path d="M 633.00 427.00 L 657.00 427.00 L 657.00 537.00 L 656.68 538.57 L 655.83 539.83 L 654.57 540.68 L 653.00 541.00 L 637.00 541.00 L 635.43 540.68 L 634.17 539.83 L 633.32 538.57 L 633.00 537.00 L 633.00 427.00 L 633.00 427.00 Z" fill="url(#linearGradient-6)" fill-rule="evenodd" group-id="2" id="矩形" node-id="66" stroke="none" target-height="114" target-width="24" target-x="633" target-y="427"></path><path d="M 633.00 573.00 L 657.00 573.00 L 657.00 656.00 L 656.68 657.57 L 655.83 658.83 L 654.57 659.68 L 653.00 660.00 L 637.00 660.00 L 635.43 659.68 L 634.17 658.83 L 633.32 657.57 L 633.00 656.00 L 633.00 573.00 L 633.00 573.00 Z" fill="url(#linearGradient-7)" fill-rule="evenodd" group-id="2" id="矩形备份" node-id="67" stroke="none" target-height="87" target-width="24" target-x="633" target-y="573"></path><path d="M 644.00 337.00 L 646.00 337.00 L 648.01 337.19 L 649.85 337.69 L 651.55 338.50 L 653.10 339.60 L 654.40 340.90 L 655.50 342.45 L 656.31 344.15 L 656.81 345.99 L 657.00 348.00 L 657.00 390.00 L 656.68 391.57 L 655.83 392.83 L 654.57 393.68 L 653.00 394.00 L 637.00 394.00 L 635.43 393.68 L 634.17 392.83 L 633.32 391.57 L 633.00 390.00 L 633.00 348.00 L 633.19 345.99 L 633.69 344.15 L 634.50 342.45 L 635.60 340.90 L 636.90 339.60 L 638.45 338.50 L 640.15 337.69 L 641.99 337.19 L 644.00 337.00 Z" fill="url(#linearGradient-8)" fill-rule="evenodd" group-id="2" id="矩形" node-id="68" stroke="none" target-height="57" target-width="24" target-x="633" target-y="337"></path><path d="M 642.00 716.00 L 648.00 716.00 L 650.41 715.67 L 652.54 714.77 L 654.36 713.36 L 655.77 711.54 L 656.67 709.41 L 657.00 707.00 L 657.00 695.00 L 657.00 695.00 L 633.00 695.00 L 633.00 707.00 L 633.33 709.41 L 634.23 711.54 L 635.64 713.36 L 637.46 714.77 L 639.59 715.67 L 642.00 716.00 Z" fill="#d2d5e0" fill-rule="evenodd" group-id="2,12" id="矩形备份-2" node-id="69" stroke="none" target-height="21" target-width="24" target-x="633" target-y="695"></path><path d="M 209.00 482.00 L 242.00 494.52 L 242.00 596.00 L 209.00 572.34 Z" fill="url(#linearGradient-9)" fill-rule="evenodd" group-id="3" id="路径-250" node-id="71" stroke="none" target-height="114" target-width="33" target-x="209" target-y="482"></path><path d="M 242.00 494.89 L 263.00 482.00 L 263.00 567.44 L 242.00 588.00 Z" fill="url(#linearGradient-10)" fill-rule="evenodd" group-id="3" id="路径-251" node-id="72" stroke="none" target-height="106" target-width="21" target-x="242" target-y="482"></path><path d="M 209.00 481.79 L 241.44 494.00 L 263.00 481.79 L 236.00 472.00 Z" fill="#f3f6fa" fill-rule="evenodd" group-id="3" id="路径-252" node-id="73" stroke="none" target-height="22" target-width="54" target-x="209" target-y="472"></path><path d="M 736.00 635.00 L 758.00 643.13 L 758.00 709.00 L 736.00 693.64 Z" fill="url(#linearGradient-11)" fill-rule="evenodd" group-id="4" id="路径-250" node-id="75" stroke="none" target-height="74" target-width="22" target-x="736" target-y="635"></path><path d="M 757.00 643.39 L 771.00 635.00 L 771.00 690.62 L 757.00 704.00 Z" fill="url(#linearGradient-12)" fill-rule="evenodd" group-id="4" id="路径-251" node-id="76" stroke="none" target-height="69" target-width="14" target-x="757" target-y="635"></path><path d="M 736.00 634.23 L 757.03 642.00 L 771.00 634.23 L 753.50 628.00 Z" fill="#f3f6fa" fill-rule="evenodd" group-id="4" id="路径-252" node-id="77" stroke="none" target-height="14" target-width="35" target-x="736" target-y="628"></path><path d="M 359.50 496.16 L 366.41 496.53 L 372.56 496.35 L 378.02 495.66 L 382.88 494.53 L 387.21 492.99 L 391.05 491.06 L 394.48 488.75 L 397.51 486.04 L 401.01 487.90 L 408.98 492.52 L 419.94 498.80 L 432.41 505.62 L 438.81 508.92 L 444.89 511.87 L 450.84 514.50 L 455.89 516.43 L 459.25 517.47 L 461.89 518.02 L 463.94 518.20 L 463.45 519.17 L 460.48 523.17 L 451.63 533.95 L 432.11 556.79 L 419.51 552.79 L 409.15 548.99 L 400.74 545.38 L 394.03 541.99 L 388.77 538.79 L 384.74 535.78 L 381.01 532.28 L 377.11 527.77 L 373.02 522.09 L 368.72 515.07 L 364.22 506.49 L 359.50 496.16 Z" fill="#f4f7fb" fill-rule="evenodd" group-id="5" id="路径-312" node-id="79" stroke="none" target-height="70.74997" target-width="104.44" target-x="359.5" target-y="486.04"></path><path d="M 391.68 509.00 L 408.72 499.00" fill="none" group-id="5,13" id="路径-313" node-id="80" stroke="#d3d6e1" stroke-linecap="butt" stroke-opacity="0.4196414" stroke-width="3" target-height="10" target-width="17.040009" target-x="391.68" target-y="499"></path><path d="M 396.68 515.00 L 413.72 505.00" fill="none" group-id="5,14" id="路径-313备份" node-id="81" stroke="#d3d6e1" stroke-linecap="butt" stroke-opacity="0.4196414" stroke-width="3" target-height="10" target-width="17.040009" target-x="396.68" target-y="505"></path><path d="M 411.68 523.00 L 428.72 513.00" fill="none" group-id="5,15" id="路径-313备份-3" node-id="82" stroke="#d3d6e1" stroke-linecap="butt" stroke-opacity="0.4196414" stroke-width="3" target-height="10" target-width="17.040009" target-x="411.68" target-y="513"></path><path d="M 401.50 521.50 L 414.72 513.00" fill="none" group-id="5,16" id="路径-313备份-2" node-id="83" stroke="#d3d6e1" stroke-linecap="butt" stroke-opacity="0.4196414" stroke-width="3" target-height="8.5" target-width="13.220001" target-x="401.5" target-y="513"></path><path d="M 411.50 533.50 L 424.72 525.00" fill="none" group-id="5,17" id="路径-313备份-4" node-id="84" stroke="#d3d6e1" stroke-linecap="butt" stroke-opacity="0.4196414" stroke-width="3" target-height="8.5" target-width="13.220001" target-x="411.5" target-y="525"></path><path d="M 378.50 516.00 L 385.96 526.00 L 396.26 520.42 L 389.00 510.87 Z" fill="#e6e9ef" fill-rule="evenodd" group-id="5" id="路径-314" node-id="85" stroke="none" target-height="15.130005" target-width="17.76001" target-x="378.5" target-y="510.87"></path><path d="M 498.46 660.65 L 500.77 662.04 L 504.89 659.45 L 507.65 657.19 L 509.39 655.21 L 509.82 654.28 L 510.11 652.68 L 509.92 651.98 L 509.36 651.55 L 508.48 651.48 L 506.67 652.01 L 504.56 653.05 L 501.12 655.20 L 500.07 656.80 L 498.46 660.65 Z" fill="#373c60" fill-rule="evenodd" group-id="6,18" id="路径-231" node-id="87" stroke="none" target-height="10.559998" target-width="11.649994" target-x="498.46" target-y="651.48"></path><path d="M 519.96 656.05 L 513.90 659.78 L 511.06 661.83 L 510.06 662.83 L 509.91 663.27 L 510.26 664.09 L 510.96 664.84 L 511.55 665.13 L 512.40 665.18 L 513.62 664.91 L 514.77 664.36 L 516.37 663.25 L 518.56 661.32 L 521.20 658.44 L 522.04 657.00 L 522.03 656.33 L 521.49 655.99 L 519.96 656.05 Z" fill="#373c60" fill-rule="evenodd" group-id="6,19" id="路径-232" node-id="88" stroke="none" target-height="9.190002" target-width="12.129974" target-x="509.91" target-y="655.99"></path><path d="M 487.00 563.89 L 492.96 563.89 L 491.57 594.33 L 489.06 591.34 Z" fill="#fabdaf" fill-rule="evenodd" group-id="6" id="路径-246" node-id="89" stroke="none" target-height="30.440002" target-width="5.9599915" target-x="487" target-y="563.89"></path><path d="M 491.15 599.09 L 494.04 611.04 L 495.48 618.99 L 495.93 623.98 L 495.75 626.88 L 495.95 631.13 L 496.47 637.86 L 497.14 645.63 L 497.81 652.98 L 498.32 658.46 L 498.53 660.61 L 498.77 661.03 L 499.50 661.76 L 500.05 662.00 L 500.77 662.04 L 501.80 661.60 L 504.13 659.86 L 504.43 644.09 L 505.11 632.76 L 506.06 624.93 L 507.14 619.79 L 508.26 616.63 L 509.25 613.96 L 509.94 610.70 L 510.27 606.75 L 510.16 601.98 L 509.53 596.26 L 508.26 589.43 L 491.15 599.09 Z" fill="#6d747f" fill-rule="evenodd" group-id="6" id="路径-244" node-id="90" stroke="none" target-height="72.609985" target-width="19.119995" target-x="491.15" target-y="589.43"></path><path d="M 504.70 596.44 L 521.47 602.11 L 520.71 626.43 L 519.83 642.67 L 518.92 652.84 L 518.04 658.70 L 517.27 661.68 L 516.63 662.92 L 515.05 664.46 L 513.69 665.19 L 512.46 665.34 L 511.25 664.97 L 509.98 663.99 L 508.39 623.21 L 506.35 617.40 L 505.20 613.27 L 504.70 610.46 L 504.47 605.54 L 504.70 596.44 Z" fill="#747474" fill-rule="evenodd" group-id="6" id="路径-245" node-id="91" stroke="none" target-height="68.900024" target-width="16.99997" target-x="504.47" target-y="596.44"></path><path d="M 491.10 601.75 L 500.28 603.76 L 507.25 604.77 L 512.43 605.02 L 516.17 604.71 L 518.82 604.00 L 520.64 603.00 L 521.84 601.75 L 521.90 596.80 L 521.43 589.47 L 520.22 579.08 L 518.02 564.86 L 527.07 557.16 L 521.84 548.09 L 512.57 548.38 L 509.13 548.94 L 507.45 549.05 L 505.58 548.85 L 504.35 548.54 L 503.07 548.09 L 501.14 548.09 L 500.56 548.09 L 499.30 548.09 L 498.33 548.26 L 497.17 548.78 L 495.74 549.75 L 493.78 551.54 L 491.73 553.92 L 489.93 556.56 L 488.46 559.36 L 487.45 562.24 L 487.10 564.86 L 488.31 565.85 L 489.29 566.11 L 490.18 565.82 L 491.10 564.86 L 491.10 601.75 Z" fill="#5b5b5b" fill-rule="evenodd" group-id="6" id="路径-243" node-id="92" stroke="none" target-height="56.929993" target-width="39.97" target-x="487.1" target-y="548.09"></path><path d="M 498.62 534.38 L 516.48 534.38 L 515.72 539.01 L 514.91 541.41 L 514.15 542.45 L 513.42 542.73 L 512.71 542.96 L 512.26 543.70 L 512.11 545.30 L 512.57 548.38 L 509.86 548.98 L 507.97 549.15 L 506.10 548.98 L 503.49 548.38 L 503.49 542.73 L 499.86 537.49 L 498.61 535.25 L 498.43 534.53 L 498.62 534.38 Z" fill="#fabdaf" fill-rule="evenodd" group-id="6" id="路径-248" node-id="93" stroke="none" target-height="14.77002" target-width="18.049988" target-x="498.43" target-y="534.38"></path><path d="M 498.87 535.51 L 500.41 535.81 L 503.53 535.88 L 509.07 535.49 L 518.07 534.38 L 526.83 534.38 L 525.46 532.32 L 520.10 531.11 L 517.45 528.55 L 514.53 526.54 L 511.31 525.07 L 507.73 524.11 L 505.90 524.04 L 504.26 524.39 L 502.77 525.16 L 500.83 526.82 L 499.33 528.87 L 498.30 531.12 L 497.87 533.05 L 497.93 534.28 L 498.27 535.05 L 498.87 535.51 Z" fill="#5b5b5b" fill-rule="evenodd" group-id="6" id="路径-249" node-id="94" stroke="none" target-height="11.840027" target-width="28.960022" target-x="497.87" target-y="524.04"></path><path d="M 522.61 549.40 L 523.58 548.35 L 523.99 547.34 L 523.94 546.30 L 523.39 545.12 L 522.14 543.71 L 519.89 542.01 L 516.24 539.95 L 512.18 537.82 L 509.05 536.00 L 506.45 534.16 L 505.39 533.04 L 505.25 532.47 L 505.67 532.10 L 507.16 531.90 L 510.12 532.17 L 516.24 533.36 L 521.01 534.68 L 524.92 536.23 L 528.10 537.97 L 530.65 539.88 L 532.65 541.96 L 534.17 544.22 L 535.26 546.68 L 535.91 549.40 L 526.62 556.50 L 522.61 549.40 Z" fill="#fabdaf" fill-rule="evenodd" group-id="6" id="路径-247" node-id="95" stroke="none" target-height="24.599976" target-width="30.659973" target-x="505.25" target-y="531.9"></path><path d="M 535.26 465.53 L 533.55 465.71 L 532.18 466.22 L 531.06 467.04 L 530.21 468.14 L 529.69 469.51 L 529.50 471.22 L 532.24 471.22 L 532.40 469.81 L 532.84 468.86 L 533.70 468.14 L 535.10 467.88 L 536.22 468.06 L 537.02 468.55 L 537.50 469.33 L 537.69 470.42 L 537.53 471.29 L 537.04 472.13 L 536.75 472.46 L 534.70 474.47 L 533.94 475.51 L 533.59 476.55 L 533.46 477.86 L 533.46 478.20 L 536.22 478.20 L 536.22 477.86 L 536.32 477.04 L 536.58 476.30 L 536.97 475.69 L 537.54 475.10 L 539.61 473.21 L 540.26 471.94 L 540.50 470.26 L 540.33 468.86 L 539.84 467.73 L 539.06 466.80 L 538.02 466.10 L 536.78 465.68 L 535.26 465.53 Z M 534.83 479.38 L 534.10 479.50 L 533.51 479.88 L 533.12 480.45 L 532.98 481.18 L 533.12 481.90 L 533.51 482.47 L 534.10 482.86 L 534.83 483.00 L 535.56 482.87 L 536.15 482.50 L 536.56 481.91 L 536.70 481.18 L 536.56 480.45 L 536.18 479.88 L 535.57 479.50 L 534.83 479.38 Z" fill="#1d90a2" fill-rule="nonzero" group-id="7,20" id="形状" node-id="98" stroke="none" target-height="17.470001" target-width="11" target-x="529.5" target-y="465.53"></path><path d="M 525.18 485.35 L 523.55 485.62 L 522.38 486.36 L 521.61 487.52 L 521.34 489.14 L 523.16 489.14 L 523.27 488.21 L 523.56 487.58 L 524.13 487.09 L 525.06 486.92 L 525.81 487.04 L 526.34 487.37 L 526.67 487.89 L 526.79 488.62 L 526.69 489.19 L 526.36 489.75 L 526.17 489.98 L 524.80 491.31 L 524.30 492.01 L 524.06 492.70 L 523.98 493.58 L 523.98 493.80 L 525.82 493.80 L 525.82 493.58 L 526.06 492.54 L 526.70 491.74 L 528.07 490.47 L 528.50 489.62 L 528.66 488.50 L 528.42 487.18 L 527.70 486.20 L 526.62 485.57 L 525.18 485.35 Z M 524.89 494.58 L 524.40 494.67 L 524.01 494.92 L 523.74 495.30 L 523.66 495.78 L 523.74 496.27 L 524.01 496.65 L 524.40 496.91 L 524.89 497.00 L 525.37 496.91 L 525.77 496.66 L 526.04 496.28 L 526.14 495.78 L 526.04 495.30 L 525.78 494.92 L 525.38 494.67 L 524.89 494.58 Z" fill="#1d90a2" fill-rule="nonzero" group-id="7,21" id="形状" node-id="100" stroke="none" target-height="11.649994" target-width="7.3199463" target-x="521.34" target-y="485.35"></path></svg>